<?xml version="1.0" encoding="UTF-8" standalone="no"?>
<!-- Generator: Adobe Illustrator 16.0.0, SVG Export Plug-In . SVG Version: 6.00 Build 0)  -->

<svg
   version="1.1"
   id="Capa_1"
   x="0px"
   y="0px"
   width="98.254px"
   height="98.254px"
   viewBox="0 0 98.254 98.254"
   style="enable-background:new 0 0 98.254 98.254;"
   xml:space="preserve"
   sodipodi:docname="search-svgrepo-com.svg"
   inkscape:version="1.1.2 (0a00cf5339, 2022-02-04)"
   xmlns:inkscape="http://www.inkscape.org/namespaces/inkscape"
   xmlns:sodipodi="http://sodipodi.sourceforge.net/DTD/sodipodi-0.dtd"
   xmlns="http://www.w3.org/2000/svg"
   xmlns:svg="http://www.w3.org/2000/svg"><defs
   id="defs39" /><sodipodi:namedview
   id="namedview37"
   pagecolor="#ffffff"
   bordercolor="#666666"
   borderopacity="1.0"
   inkscape:pageshadow="2"
   inkscape:pageopacity="0.0"
   inkscape:pagecheckerboard="0"
   showgrid="false"
   inkscape:zoom="5.3636494"
   inkscape:cx="49.126999"
   inkscape:cy="49.220219"
   inkscape:window-width="1366"
   inkscape:window-height="699"
   inkscape:window-x="0"
   inkscape:window-y="32"
   inkscape:window-maximized="1"
   inkscape:current-layer="Capa_1" />
<g
   id="g4"
   style="fill:#ffffff">
	<path
   d="M95.893,84.496l-32.481-32.48c-1.93-1.93-4.591-2.672-7.088-2.235c9.044-12.216,8.036-29.584-3.027-40.647   C41.12-3.043,21.308-3.043,9.132,9.133s-12.176,31.987,0,44.162c11.063,11.064,28.432,12.072,40.646,3.03   c-0.435,2.497,0.308,5.157,2.235,7.086l32.483,32.481c3.146,3.146,8.25,3.147,11.396,0.001   C99.041,92.745,99.04,87.644,95.893,84.496z M45.603,45.604c-7.934,7.935-20.843,7.934-28.776,0   c-7.936-7.935-7.936-20.845,0-28.777c7.934-7.935,20.843-7.935,28.776,0C53.538,24.758,53.538,37.669,45.603,45.604z"
   id="path2"
   style="fill:#ffffff" />
</g>
<g
   id="g6">
</g>
<g
   id="g8">
</g>
<g
   id="g10">
</g>
<g
   id="g12">
</g>
<g
   id="g14">
</g>
<g
   id="g16">
</g>
<g
   id="g18">
</g>
<g
   id="g20">
</g>
<g
   id="g22">
</g>
<g
   id="g24">
</g>
<g
   id="g26">
</g>
<g
   id="g28">
</g>
<g
   id="g30">
</g>
<g
   id="g32">
</g>
<g
   id="g34">
</g>
</svg>
